<svg xmlns="http://www.w3.org/2000/svg" xmlns:xlink="http://www.w3.org/1999/xlink" viewBox="0 0 30 30"><defs><style>.cls-1{fill:#00adef;}.cls-2{fill:#c8daea;}.cls-3{fill:#a9c9dd;}.cls-4{fill:url(#linear-gradient);}</style><linearGradient id="linear-gradient" x1="-402.46" y1="310.51" x2="-402.43" y2="310.46" gradientTransform="matrix(130.49, 0, 0, -109.45, 52534.36, 34001.2)" gradientUnits="userSpaceOnUse"><stop offset="0" stop-color="#eff7fc"/><stop offset="1" stop-color="#fff"/></linearGradient></defs><g id="Слой_2" data-name="Слой 2"><g id="Слой_1-2" data-name="Слой 1"><circle class="cls-1" cx="15" cy="15" r="15"/><path class="cls-2" d="M11.6,23.5c-.6,0-.5-.22-.71-.8L9.13,16.89l13.6-8.07"/><path class="cls-3" d="M11.6,23.5a1.2,1.2,0,0,0,.93-.46L15,20.63l-3.09-1.86"/><path class="cls-4" d="M11.91,18.77l7.48,5.53c.85.47,1.47.22,1.68-.8l3-14.33c.32-1.25-.47-1.82-1.29-1.45L5,14.61c-1.22.49-1.21,1.17-.22,1.47l4.59,1.43,10.61-6.69c.5-.31,1-.14.59.19"/></g></g></svg>