<svg xmlns="http://www.w3.org/2000/svg" viewBox="0 0 1257 70"><defs><style>.cls-1{fill:#fff;}</style></defs><g id="Слой_2" data-name="Слой 2"><g id="Layer_1" data-name="Layer 1"><polygon class="cls-1" points="606.72 0 594.53 0 586.52 0 575.68 0 566.31 0 556.82 0 546.11 0 537.97 0 525.9 0 519.12 0 505.69 0 500.26 0 485.49 0 481.41 0 465.29 0 462.56 0 445.08 0 443.71 0 424.88 0 424.85 0 406 0 406 70 424.85 70 424.88 70 443.71 70 445.08 70 462.56 70 465.29 70 481.41 70 485.49 70 500.26 70 505.69 70 519.12 70 525.9 70 537.97 70 546.11 70 556.82 70 566.31 70 575.68 70 586.52 70 594.53 70 606.72 70 1257 70 1257 0 606.72 0"/><rect class="cls-1" width="8" height="70"/><rect class="cls-1" x="10" width="4" height="70"/><rect class="cls-1" x="18" width="4" height="70"/><rect class="cls-1" x="34" width="4" height="70"/><rect class="cls-1" x="40" width="6" height="70"/><rect class="cls-1" x="54" width="10" height="70"/><rect class="cls-1" x="66" width="4" height="70"/><rect class="cls-1" x="78" width="8" height="70"/><rect class="cls-1" x="88" width="10" height="70"/><rect class="cls-1" x="100" width="4" height="70"/><rect class="cls-1" x="108" width="8" height="70"/><rect class="cls-1" x="118" width="10" height="70"/><rect class="cls-1" x="132" width="8" height="70"/><rect class="cls-1" x="142" width="10" height="70"/><rect class="cls-1" x="154" width="4" height="70"/><rect class="cls-1" x="166" width="10" height="70"/><rect class="cls-1" x="178" width="6" height="70"/><rect class="cls-1" x="186" width="4" height="70"/><rect class="cls-1" x="198" width="8" height="70"/><rect class="cls-1" x="208" width="10" height="70"/><rect class="cls-1" x="220" width="4" height="70"/><rect class="cls-1" x="232" width="6" height="70"/><rect class="cls-1" x="240" width="10" height="70"/><rect class="cls-1" x="258" width="4" height="70"/><rect class="cls-1" x="264" width="4" height="70"/><rect class="cls-1" x="276" width="8" height="70"/><rect class="cls-1" x="286" width="4" height="70"/><rect class="cls-1" x="298" width="4" height="70"/><rect class="cls-1" x="304" width="10" height="70"/><rect class="cls-1" x="316" width="6" height="70"/><rect class="cls-1" x="330" width="4" height="70"/><rect class="cls-1" x="346" width="6" height="70"/><rect class="cls-1" x="358" width="4" height="70"/><rect class="cls-1" x="364" width="6" height="70"/><rect class="cls-1" x="378" width="10" height="70"/><rect class="cls-1" x="390" width="4" height="70"/><rect class="cls-1" x="396" width="8" height="70"/></g></g></svg>